# xmcd
#
# Track frame offsets:
#	150
#	22800
#	43200
#	56325
#	78750
#	109200
#	132150
#	153750
#	176175
#	193200
#	216375
#
# Disc length: 3344 seconds
#
# Revision: 0
# Processed by: cddbd v1.5.1PL2 Copyright (c) Steve Scherf et al.
# Submitted via: EasyCDDAExtractor 8.0.2.1
#
DISCID=920d0e0b
DTITLE=Uriah Heep - Lisebergshallen Gothenburg 05-12-05
DYEAR=2005
DGENRE=Hard rock
TTITLE0=Intro - So Tired
TTITLE1=Cry Freedom
TTITLE2=Falling In Love
TTITLE3=Words In The Distance
TTITLE4=Between Two Worlds
TTITLE5=Sweet Lorraine
TTITLE6=Sunrise
TTITLE7=Return To Fantasy
TTITLE8=Gypsy
TTITLE9=Easy Livin'
TTITLE10=Lady In Black
EXTD=
EXTT0=
EXTT1=
EXTT2=
EXTT3=
EXTT4=
EXTT5=
EXTT6=
EXTT7=
EXTT8=
EXTT9=
EXTT10=
PLAYORDER=
